inDegrees=no
num_controls=7
num_derivatives=13
num_iterations=122
num_multipliers=7
num_parameters=0
num_slacks=7
num_states=26
objective=0.464106
objective_accelerations=0.018870
objective_balance=0.000855
objective_effort=0.025952
objective_height=0.412152
objective_ligament=0.006276
solver_duration=1293.984187
status=Solve_Succeeded
success=true
DataType=double
version=3
OpenSimVersion=4.5
endheader
time	/jointset/ground_pelvis/pelvis_tilt/value	/jointset/ground_pelvis/pelvis_tx/value	/jointset/ground_pelvis/pelvis_ty/value	/jointset/hip_r/hip_flexion_r/value	/jointset/hip_r/hip_adduction_r/value	/jointset/hip_r/hip_rotation_r/value	/jointset/back/lumbar_extension/value	/jointset/patellofemoral_r/patellar_flexion_r/value	/jointset/knee_r/knee_flexion_r/value	/jointset/knee_r/knee_adduction_r/value	/jointset/knee_r/knee_rotation_r/value	/jointset/ankle_r/ankle_angle_r/value	/jointset/subtalar_r/subtalar_angle_r/value	/jointset/ground_pelvis/pelvis_tilt/speed	/jointset/ground_pelvis/pelvis_tx/speed	/jointset/ground_pelvis/pelvis_ty/speed	/jointset/hip_r/hip_flexion_r/speed	/jointset/hip_r/hip_adduction_r/speed	/jointset/hip_r/hip_rotation_r/speed	/jointset/back/lumbar_extension/speed	/jointset/patellofemoral_r/patellar_flexion_r/speed	/jointset/knee_r/knee_flexion_r/speed	/jointset/knee_r/knee_adduction_r/speed	/jointset/knee_r/knee_rotation_r/speed	/jointset/ankle_r/ankle_angle_r/speed	/jointset/subtalar_r/subtalar_angle_r/speed	/forceset/tau_hip_flexion_r	/forceset/tau_hip_adduction_r	/forceset/tau_hip_rotation_r	/forceset/tau_knee_flexion_r	/forceset/tau_ankle_angle_r	/forceset/tau_subtalar_angle_r	/forceset/tau_lumbar_extension	lambda_cid13_p0	lambda_cid14_p0	lambda_cid14_p1	lambda_cid14_p2	lambda_cid14_p3	lambda_cid14_p4	lambda_cid14_p5	/jointset/ground_pelvis/pelvis_tilt/accel	/jointset/ground_pelvis/pelvis_tx/accel	/jointset/ground_pelvis/pelvis_ty/accel	/jointset/hip_r/hip_flexion_r/accel	/jointset/hip_r/hip_adduction_r/accel	/jointset/hip_r/hip_rotation_r/accel	/jointset/back/lumbar_extension/accel	/jointset/patellofemoral_r/patellar_flexion_r/accel	/jointset/knee_r/knee_flexion_r/accel	/jointset/knee_r/knee_adduction_r/accel	/jointset/knee_r/knee_rotation_r/accel	/jointset/ankle_r/ankle_angle_r/accel	/jointset/subtalar_r/subtalar_angle_r/accel	gamma_cid13_p0	gamma_cid14_p0	gamma_cid14_p1	gamma_cid14_p2	gamma_cid14_p3	gamma_cid14_p4	gamma_cid14_p5
1	0.1944356160814953	0.06310744336495089	0.8141479305524613	0.5301383183120217	-0.2631974509719229	-0.01650513105847291	-0.7853981623083826	1.078019146058824	1.0780191460589	0.07190126232535071	0.1745325648217558	0.4363323129985824	0.1271605340733268	0.03578626807231633	0.0009179298910396299	0.006594380872457814	-0.05248602763889085	-0.002429043460091056	0.004927461028180579	0.004070193495072354	-0.01715676434654333	-0.01715676434654295	0.01379487869717013	-1.004945416845022e-05	-0.002425018204047035	-0.005745850221264263	-0.05504387423144775	-0.001731746068167378	0.04639525174288212	-0.490833311491399	0.05439627304999314	-0.02174866385227787	0.1892486891172923	-2.965141940537438	-31.27927797642543	-18.36700839415617	7.284914249207724	-12.60969228924305	-708.0129863332108	73.64216752851441	-0.004924063609239211	0.4809577077586047	0.6728037801404354	-2.261139554242614	0.1102386430212082	-1.047254606473768	1.337329580392021	-2.6772322828391	-2.6772322828391	-0.303090378766756	-0.01377586743655501	-0.4802707864432655	0.02574591734624234	1.510935075486533e-09	2.995314360619407e-09	-4.687162012576716e-09	-3.592776009226591e-09	-2.027284298979581e-09	-4.519496188047618e-09	-8.132260968269526e-10
1.01	0.1947918064213389	0.06314023935964874	0.8142474705880826	0.5295024273160822	-0.2632161565974975	-0.01650927077087403	-0.7852895541341651	1.077713272824624	1.077713272824705	0.07202321549531329	0.1745323314172319	0.4362829816496614	0.1271040655596676	0.03536547232742575	0.005600349972507464	0.0133200258712972	-0.07457507760151766	-0.001307700532417729	-0.005761826335314266	0.0176995450641202	-0.04409253675511216	-0.04409253675511016	0.01060956577276392	-3.299411488303322e-05	-0.007554556493029095	-0.005588168130619853	-0.0555042616426499	-0.00114518904198778	0.04635955915425737	-0.4894021455214366	0.05117943397834718	-0.02149236339246244	0.189541314236422	-2.974700878534135	-32.3531069462163	-18.40429177318042	7.245825279673201	-11.30339712182315	-708.4902954277718	73.54282905903798	-0.07360648075816084	0.4557459852922379	0.673403215975818	-2.165223707512836	0.1137370355039486	-1.080729538890043	1.382953502513755	-2.712948055332897	-2.712948055332634	-0.3241814637893064	0.003989486343328672	-0.5462486284824495	0.004729176440174027	9.86434129080503e-10	1.684623720815897e-09	-1.065789337769033e-08	-9.101985886277055e-09	-1.562849255925485e-09	-7.899367419820035e-09	-4.398408588439156e-09
1.02	0.1951411989735682	0.06321863192055154	0.8144144587449365	0.5286491586224709	-0.2632235178102221	-0.01662049610443115	-0.785043209332786	1.077135802199245	1.077135802199333	0.07211372959313976	0.1745319772164213	0.4361789628779434	0.1270479638312183	0.03442671054936702	0.01003724313202489	0.02008400511894964	-0.09596156717374979	-0.0001601608902049565	-0.01648966320291605	0.03161751892727283	-0.07147624258236612	-0.07147624258236154	0.007507064267886106	-3.420870630787302e-05	-0.01336222591628215	-0.005672493179309828	-0.05596464905383487	-0.0005586320158018199	0.04632386656559631	-0.4879709795514701	0.04796259490670399	-0.02123606293263304	0.1898339393555649	-2.99272378071861	-33.43352177662175	-18.44099717479433	7.20466706407751	-10.02449327638415	-709.0907338980915	73.44559405681069	-0.1085172702428655	0.4318523233685179	0.6804706299030481	-2.120627476163674	0.1154779859290986	-1.054964507295156	1.39505403921298	-2.766818966576126	-2.766818966575932	-0.2865280948610788	-0.0094298535786071	-0.61589701329747	-0.02265551052063571	2.481459141276019e-11	-1.42600726285042e-09	-2.110069300476685e-08	-1.657802171543284e-08	2.285834597533185e-09	-1.128694988941671e-08	-1.307404113897345e-08
1.03	0.1954790460564975	0.06334028885718918	0.814649297856997	0.5275848912855013	-0.2632193073374213	-0.01683906026622435	-0.7846565403821862	1.076282279084909	1.076282279084926	0.07217380837652369	0.1745317102381937	0.4360137117568887	0.1269898417708424	0.03309638432465521	0.01426523835349632	0.02689194016375967	-0.1168353853900348	0.00100488581151145	-0.02721542096490224	0.04573722619690251	-0.09930071727960378	-0.09930071727959555	0.004537555545419684	-2.073309343100321e-05	-0.01977782809952381	-0.005985827215223782	-0.05618745737737301	-0.00010907470123612	0.0462603876516289	-0.4867514860963461	0.04551927841791487	-0.02105743648374661	0.1899445741102238	-3.019414589995838	-34.24929911956427	-18.47441877946068	7.17362901628452	-9.057722763595484	-709.4633192531516	73.34090915266323	-0.1522388478688403	0.41393850256586	0.6821704169046161	-2.062282361538176	0.1174073744431337	-1.08022027191377	1.423572321470241	-2.801112076410404	-2.801112076409983	-0.2978361413223708	0.00649783857336426	-0.6678654859666037	-0.04076644809111481	-9.412653400433698e-10	-4.555004984719428e-09	-3.158912598145527e-08	-2.407412719716114e-08	6.169051602118452e-09	-1.467461104511363e-08	-2.180161705745596e-08
1.04	0.1958022001673233	0.06350335882224739	0.8149524594145326	0.5263135810929357	-0.263203368525173	-0.01716464977789049	-0.7841280457087633	1.075148341152578	1.075148341152524	0.07220505729661501	0.1745315303300633	0.4357816098809748	0.1269275675505146	0.0314881161286031	0.01831984881613925	0.03374849421396435	-0.1373701382934107	0.002185506999233968	-0.03789473317742433	0.05998266349182457	-0.1275592061813544	-0.1275592061813435	0.001741091607634005	-1.679468645273788e-05	-0.02673237688792911	-0.006502925169711073	-0.05641026570089595	0.0003404826133361773	0.04619690873763346	-0.4855319926412183	0.04307596192912862	-0.02087881003484592	0.1900552088648941	-3.055034233620791	-35.07204762527746	-18.50680907355062	7.139854594375126	-8.113358038947872	-709.9635824251254	73.24041989533718	-0.1641056645109201	0.3971753716028121	0.6901944309819801	-2.052814413581863	0.1185928831303215	-1.045675397402339	1.420200044271457	-2.853621807478726	-2.853621807478713	-0.2519191379249325	-0.01133729475832582	-0.7236863343302052	-0.06340829423530524	-1.666371531862974e-09	-6.614245454046622e-09	-4.145630769323712e-08	-3.001389115294114e-08	8.596664232686991e-09	-1.672478378173887e-08	-2.978350235308076e-08
